# xmcd
#
# Track frame offsets: 
#        150
#        15408
#        30877
#        42559
#        62681
#        76491
#        89063
#        108280
#        123156
#        138439
#        155460
#        174182
#        193105
#        218549
#        239759
#
# Disc length: 3414 seconds
#
# Revision: 0
# Processed by: cddbd v1.5.2PL0 Copyright (c) Steve Scherf et al.
# Submitted via: ExactAudioCopy v1.0b4
#
DISCID=c00d540f
DTITLE=Shawn Pittman - Too Hot
DYEAR=2010
DGENRE=Blues
TTITLE0=How Many More Years
TTITLE1=Secret Weapon
TTITLE2=The Same Thing Could Happen To You
TTITLE3=Slow Down
TTITLE4=Geronimo Rock
TTITLE5=Next Door Neighbor
TTITLE6=Lookin' Good
TTITLE7=My Love Is Here To Stay
TTITLE8=Can't Stand To See You Go
TTITLE9=Play A Little While
TTITLE10=Business Man
TTITLE11=Where You Get Your Sugar From
TTITLE12=Burnin' Up
TTITLE13=Reap What You Sow
TTITLE14=Too Hot
EXTD=
EXTT0=
EXTT1=
EXTT2=
EXTT3=
EXTT4=
EXTT5=
EXTT6=
EXTT7=
EXTT8=
EXTT9=
EXTT10=
EXTT11=
EXTT12=
EXTT13=
EXTT14=
PLAYORDER=
